<svg xmlns="http://www.w3.org/2000/svg" width="400" height="144.594">
  <g fill-rule="evenodd">    
    <path d="M38.042 79.453c.252.038.664.038.916 0s.046-.07-.458-.07-.71.032-.458.07m-3.125.311l-1.5.433c-5.109 1.473-9.736 7.047-13.326 16.053-.255.642-.615 1.54-.799 1.997-.443 1.101-1.827 5.328-2.291 7.003a83.6 83.6 0 01-.602 2.071c-.238.755-.311 1.48-.133 1.302.055-.055.269-.799.475-1.653.207-.854.549-2.116.76-2.803.562-1.832 1.283-4.036 1.473-4.506.092-.226.443-1.124.781-1.994.338-.871.712-1.809.83-2.084 4.513-10.476 8.859-14.857 15.748-15.876l1.084-.161-.834-.011a6.87 6.87 0 00-1.666.229m5.43-.201c.038.035.82.106 1.736.157 1.157.065 1.463.049 1-.054-.653-.144-2.873-.227-2.736-.103m4.736.595c.275.07.913.219 1.417.332l1.25.282c.269.062.284.046.078-.085-.326-.208-2.4-.692-2.88-.672-.278.011-.246.045.135.143m3.084.743c0 .037.468.217 1.041.4 2.273.724 5.976 2.533 7.269 3.55.42.33.777.425.615.163-.22-.356-4.658-2.743-6.08-3.27-.327-.122-1.007-.376-1.51-.566-.871-.328-1.335-.425-1.335-.277m-32.213 28.266c-.064.229-.11.604-.103.833.011.359.035.339.173-.142.088-.306.135-.681.103-.833-.04-.194-.091-.153-.173.142m-.436 2.195c-.432 2.147-.517 2.686-.5 3.188.02.614.042.522.561-2.356.296-1.643.244-2.349-.061-.832m-.894 5.536a13.045 13.045 0 00-.102 1.834l.022 1.018.146-1.333c.178-1.62.127-2.783-.066-1.519m-.225 5.519c0 1.283.027 1.786.058 1.117.032-.668.032-1.718 0-2.333-.032-.615-.058-.068-.058 1.216m.177 4.327c.033.95.121 1.506.242 1.529.105.019.127.002.049-.04-.078-.041-.114-.279-.082-.529.033-.25-.012-.904-.1-1.454-.157-.977-.16-.966-.109.494" fill="#40ac3f"/>
    
    <path d="M67.954 67.042c-2.294 4.429-4.785 8.666-8.594 14.614-2.477 3.868-2.392 3.391-.83 4.652 10.121 8.171 9.79 20.583-.929 34.775-4.235 5.607-12.246 9.401-22.101 10.467-.321.035.767.076 2.417.092 5.012.047 11.102-.314 16.75-.995 1.729-.209 4.742-.779 6.583-1.247 1.24-.315 4.438-1.32 5.333-1.677 11.516-4.581 19.952-12.951 23.238-23.056.47-1.445.627-2.116 1.109-4.734.303-1.647.26-7.898-.063-9.183a34.082 34.082 0 01-.364-1.75c-1.615-8.922-7.922-17.644-16.42-22.705C73.099 65.708 69.769 64 69.61 64c-.045 0-.79 1.369-1.656 3.042" fill="#7bd38b"/>
    
    <path d="M36.083 79.762c-6.799 1.108-11.013 5.411-15.498 15.821a99.255 99.255 0 00-.83 2.084c-.338.87-.689 1.768-.781 1.994-2.411 5.959-4.477 16.551-4.472 22.931.002 3.02.36 5.774.815 6.262.192.206.35.435.35.507 0 .225 1.672.913 2.75 1.131l2.333.475c4.581.937 14.25 1.398 14.25.681 0-.082.258-.148.572-.148 3.27 0 12.025-2.651 15.845-4.798 5.654-3.178 12.285-13.305 14.104-21.542 1.825-8.259-2.164-16.494-10.21-21.077-2.784-1.585-6.155-2.971-8.644-3.554l-1.584-.368c-2.49-.575-6.756-.764-9-.399" fill="#349c74"/>
    
    <path d="M35.333 4.511c-.321.066-.958.161-1.416.21-.459.048-1.491.281-2.295.517-.803.236-1.564.429-1.69.429-.289 0-3.626 1.32-3.84 1.519-.087.081-.287.147-.445.147-.157 0-.311.057-.341.125-.031.069-.431.308-.889.532-1.321.645-4.443 2.74-5.354 3.593-2.801 2.625-3.868 3.849-5.518 6.334-.931 1.401-3.212 5.675-3.212 6.019 0 .058-.193.565-.43 1.126l-.641 1.521c-.265.63-.545 1.434-.872 2.5-.141.459-.427 1.359-.637 2-.368 1.128-.457 1.436-.987 3.417-.403 1.505-1.093 5.023-1.194 6.08-.051.543-.125 1.038-.164 1.101-.039.063-.149 1.012-.244 2.108s-.203 2.149-.24 2.34c-.037.191-.116 1.197-.176 2.234-.06 1.038-.168 2.825-.241 3.97-.161 2.558-.157 17.198.006 19.834.065 1.054.168 3.004.228 4.333.061 1.329.139 2.679.175 3 .068.613.201 2.4.336 4.5.044.688.117 1.513.163 1.833.046.321.122 1.146.168 1.834.047.687.157 1.775.245 2.416.088.642.204 1.668.257 2.28.053.613.131 1.288.173 1.5.042.213.118.912.169 1.554.051.641.158 1.466.236 1.833.079.367.192 1.154.251 1.75.058.596.137 1.196.174 1.333.037.138.182 1.075.322 2.084.876 6.29 1.214 7.304 1.22 3.666.022-13.247 5.335-25.287 14.966-33.916 5.634-5.048 13.99-9.31 20.571-10.494 4.714-.847 5.024-.877 9.416-.89 3.491-.011 4.625.043 5.834.278 2.59.504 3.803.77 4.75 1.04.504.143 1.141.322 1.416.397.612.167 2.607.884 3.461 1.244.623.262.63.261.788-.156.088-.231.322-.776.521-1.212 2.476-5.429 4.091-10.899 4.718-15.979.267-2.166.313-6.637.086-8.388-.089-.691-.195-1.52-.234-1.84-.28-2.271-1.819-7.497-2.742-9.306-.195-.382-.304-.694-.242-.694s.005-.132-.126-.292c-.131-.16-.532-.892-.892-1.625-.359-.733-.703-1.371-.764-1.417-.061-.046-.245-.345-.41-.666-.286-.559-.896-1.492-1.089-1.667-.05-.046-.35-.456-.667-.91-1.538-2.214-6.413-7.257-7.014-7.257-.079 0-.144-.075-.144-.166 0-.092-.093-.167-.208-.168-.115 0-.448-.225-.741-.5-.293-.274-.566-.499-.606-.499-.135 0-2.193-1.4-2.317-1.576-.067-.096-.124-.117-.125-.047-.002.07-.31-.067-.687-.305-1.321-.834-5.451-2.697-6.649-2.999-.138-.035-.888-.245-1.667-.466a50.154 50.154 0 00-4.887-1.095c-1.075-.191-6.696-.191-7.613-.001M345.79 17.956c-4.845 1.798-4.872 9.139-.04 10.788 6.899 2.355 11.124-7.187 4.667-10.539-1.107-.575-3.414-.699-4.627-.249M126.167 45.5v25h9.666v-4.401l.875.916c1.76 1.842 4.752 3.605 6.625 3.905.23.036.679.144.999.24.763.227 4.408.223 5.535-.007 1.028-.209 3.678-1.008 3.8-1.146.045-.051.381-.243.745-.425.907-.454 2.246-1.395 2.78-1.953.243-.254.524-.462.625-.462a.18.18 0 00.183-.174c0-.096.277-.473.615-.839.555-.599 2.052-2.737 2.052-2.93 0-.043.181-.467.403-.943.478-1.021 1.091-2.826 1.201-3.531.043-.275.119-.613.168-.75.858-2.389.601-10.137-.43-13-1.482-4.114-3.809-7.53-6.099-8.953-6.526-4.055-13.773-3.596-18.685 1.185l-1.392 1.355V20.5h-9.666v25m63.75-11.986c-3.542.609-6.337 1.993-8.709 4.312l-1.041 1.019v-4.678H170.5V70.5h9.667V46.56l.458-.496c1.237-1.338 3.979-2.849 5.637-3.107.177-.027.396-.09.488-.138.479-.253 2.89-.311 4.125-.1l.792.135v-9.521l-.459.019c-.252.01-.833.083-1.291.162m21.75.005c-2.473.396-4.608 1.045-6.25 1.903-14.633 7.636-12.513 30.547 3.25 35.129 7.88 2.291 16.454-.087 21.084-5.849 1.589-1.976 3.422-5.711 3.665-7.464.027-.191.141-.791.255-1.334.528-2.523.202-7.178-.701-10.025-.181-.57-.326-1.075-.321-1.122.012-.126-1.122-2.273-1.337-2.533-.103-.123-.134-.224-.071-.224.064 0 .017-.108-.104-.24a10.528 10.528 0 01-.637-.846 13.526 13.526 0 00-.81-1.052 31.114 31.114 0 01-.667-.779c-2.867-3.497-8.608-5.785-14.376-5.73-1.135.011-2.476.086-2.98.166m106.583.06c-3.037.531-5.922 1.991-8.478 4.29l-.689.62-.046-2.161-.047-2.161h-9.825l.043 18.125.042 18.125 4.875.044 4.875.044V46.061l.875-.906c2.765-2.86 7.053-3.972 10.331-2.677.886.35 2.294 1.436 2.294 1.769 0 .079.109.264.243.411.781.863.823 1.546.884 14.05l.056 11.792h9.663l-.059-13.958c-.061-14.677-.056-14.547-.614-16.125a21.708 21.708 0 01-.395-1.191c-.219-.99-2.079-3.165-3.528-4.126-2.278-1.511-6.807-2.166-10.5-1.521m57.667-.055c-2.194.4-2.806.578-4.667 1.361-2.509 1.055-3.482 1.707-5.632 3.772-7.406 7.114-7.201 21.329.402 27.864 2.647 2.275 6.224 4.053 8.897 4.422.275.038.86.141 1.3.23 1.035.208 5.864.208 6.9 0a27.54 27.54 0 011.35-.237c1.892-.262 6.459-1.842 7.033-2.434.046-.047.275-.185.51-.305.743-.382 2.323-1.714 2.323-1.959 0-.129-.549-1.041-1.221-2.028-2.265-3.325-2.815-4.126-2.879-4.195-.035-.038-.196.075-.357.25-2.952 3.211-11.186 4.361-14.709 2.056a2.885 2.885 0 00-.542-.262c-.16-.054-.292-.164-.292-.245 0-.081-.08-.147-.178-.147-.957 0-3.37-3.651-3.718-5.625l-.095-.542h26.854l-.106-2.792c-.159-4.14-.911-7.298-2.393-10.041l-.853-1.584c-.671-1.247-3.925-4.508-5.101-5.11a43.145 43.145 0 01-1.245-.679c-2.698-1.531-8.24-2.378-11.581-1.77m-139.3.748c-.058.058-.028.25.067.427.095.178.199.457.23.621.032.165.228.853.436 1.531.208.678.384 1.27.39 1.316.023.171.472 1.601.654 2.083.104.275.195.575.202.667.018.243.405 1.574.653 2.25.119.32.298.883.4 1.25.102.366.373 1.259.603 1.983.229.725.447 1.475.482 1.667a4.9 4.9 0 00.235.766c.094.23.37 1.092.614 1.917s.506 1.688.583 1.917c.077.229.377 1.204.666 2.166l.679 2.25.806 2.667c.36 1.192.924 3.039 1.254 4.104.94 3.039 1.787 5.861 1.881 6.271l.087.375h10.42l.171-.625c.094-.344.406-1.375.694-2.292.288-.916.55-1.779.583-1.916.056-.236.459-1.52 1.254-4 .191-.596.379-1.22.419-1.388.04-.167.338-1.142.663-2.166l.828-2.613c.738-2.331 2.689-8.709 2.827-9.241.022-.087.136.213.252.667.117.453.313 1.086.435 1.407.122.321.496 1.484.829 2.584.334 1.1.703 2.3.821 2.666.118.367.294.929.391 1.25.098.321.402 1.296.676 2.167.274.871.7 2.258.947 3.083.248.825.63 2.063.851 2.75.22.688.466 1.475.545 1.75.408 1.418 1.248 4.036 1.376 4.29.08.159.146.445.146.636 0 1.016-.138.991 5.426.991h5.081l.151-.375c.14-.344 1.581-5.034 2.087-6.792.119-.412.416-1.387.659-2.166.243-.78.546-1.792.673-2.251.127-.459.449-1.509.716-2.333.267-.825.58-1.837.696-2.25.117-.412.31-1.05.429-1.416.12-.367.419-1.342.665-2.167a42.61 42.61 0 01.639-2c.105-.275.192-.538.193-.583.003-.095.269-1.006.827-2.834.21-.687.511-1.7.669-2.25.159-.55.457-1.525.663-2.166.207-.642.462-1.467.569-1.834.432-1.491 1.22-4.022 1.356-4.358.226-.559.229-.558-5.007-.558h-4.953l-.534 1.875c-.48 1.687-.846 3.003-1.867 6.708a1310.573 1310.573 0 00-1.217 4.417 357.445 357.445 0 01-1.19 4.25 18.877 18.877 0 00-.335 1.333c-.053.275-.166.631-.252.792-.086.16-.119.291-.074.291s-.034.319-.174.709a9.398 9.398 0 00-.335 1.125c-.34 1.784-.78 2.582-.942 1.708-.046-.252-.274-.983-.506-1.625-.231-.642-1.187-3.529-2.124-6.417-3.652-11.26-4.688-14.43-4.834-14.794l-.151-.378-4.29.045-4.29.044-.398 1.25c-.218.688-.458 1.4-.532 1.583-.074.184-.826 2.471-1.672 5.084-3.274 10.115-4.205 12.955-4.59 14.003-.219.598-.399 1.217-.399 1.375 0 .33-.316.393-.399.08-.031-.115-.143-.546-.249-.958a126.537 126.537 0 00-.923-3.417 69.889 69.889 0 01-.436-1.583 32.491 32.491 0 00-.406-1.417 50.465 50.465 0 01-.501-1.75c-.16-.596-.35-1.271-.423-1.5a69.334 69.334 0 01-.58-2.167c-.245-.962-.525-1.96-.622-2.217a4.99 4.99 0 01-.229-.833c-.03-.202-.251-1.041-.492-1.866a65.336 65.336 0 01-.496-1.75c-.071-.306-.419-1.561-.821-2.959l-.3-1.041h-4.951c-2.722 0-4.997.047-5.055.105m106.46.103c-.044.115-.06 8.271-.037 18.125l.043 17.917 4.792.044 4.792.044V34.167h-4.756c-3.65 0-4.773.048-4.834.208m38.673 7.077c1.252.392 2.598 1.117 3.233 1.741.755.743 1.85 2.236 1.85 2.522 0 .126.053.282.117.346.177.177.711 1.971.714 2.397l.003.375h-8.75c-6.412 0-8.75-.05-8.75-.189 0-.987 1.466-4.052 2.39-4.995 2.239-2.286 6.02-3.189 9.193-2.197m-235.38.868c3.132.896 5.701 3.687 6.225 6.762.047.276.157.764.244 1.085.736 2.698-.413 7.605-2.235 9.55-.241.257-.437.538-.437.625 0 .087-.094.159-.209.161-.114.001-.37.174-.568.382-.36.381-1.222.859-2.473 1.373-1.027.422-3.909.517-5.25.173-1.212-.311-3.334-1.237-3.334-1.456 0-.078-.1-.142-.224-.142-.123 0-.685-.45-1.25-1.001l-1.026-1V46.051l.709-.76c2.487-2.668 6.571-3.903 9.828-2.971m70.682-.049c2.302.721 5.588 3.347 5.324 4.255-.018.06.078.2.213.312.134.111.244.329.244.482 0 .154.076.355.168.447.599.599 1.012 5.123.645 7.056-.607 3.192-2.484 5.768-5.146 7.062l-1.417.688-2.333-.009c-2.722-.01-3.571-.273-5.33-1.652-1.246-.975-2.927-3.231-2.762-3.705.009-.024-.093-.253-.225-.509-1.017-1.966-.977-6.167.085-9.031 1.564-4.216 6.397-6.692 10.534-5.396m-1.182 36.731c-4.065 1.432-5.258 6.299-2.331 9.512.568.624 1.952 1.512 2.432 1.561.154.016.626.087 1.051.159 4.986.846 8.537-5.565 5.197-9.383-.681-.778-2.219-2.005-2.219-1.77 0 .054-.156.014-.346-.088-.623-.333-2.826-.328-3.784.009m61.797 9.994v4.996l-3.042.046-3.042.045v8.5l3.042.046 3.042.045v10.253c0 11.344.035 11.807 1.049 13.906 1.062 2.198 3.542 4.02 6.034 4.433.275.046.908.155 1.406.242 2.968.52 7.55-.405 9.419-1.902l.491-.394-.351-1.398c-.192-.768-.476-1.847-.629-2.397a96.045 96.045 0 01-.343-1.25c-.256-1.006-.617-2.26-.665-2.309-.031-.033-.493.154-1.025.414-2.184 1.069-4.26.57-5.163-1.24l-.473-.949-.05-8.705-.05-8.705 3.716-.045 3.717-.045.044-4.291.045-4.292h-7.506V84h-9.666v4.996M143.564 93.33c-.195.079-.57.18-.834.226-.264.046-.743.17-1.063.277-.534.178-.77.268-1.5.575-.879.369-3.082 2.006-3.977 2.955l-.773.821-.084-2.051-.083-2.05-4.958-.044-4.959-.044V144.5h10v-18.074l1.042 1.01c1.652 1.602 4.508 3.397 5.403 3.397.177 0 .393.069.48.153.163.158.369.199 2.685.542 1.492.221 4.498-.019 5.807-.464.367-.124.77-.227.896-.228.374-.004 2.719-1.187 3.396-1.712.343-.267.625-.439.625-.382 0 .276 2.175-1.903 3.07-3.075 3.997-5.238 5.1-14.121 2.699-21.75-.846-2.69-3.429-6.335-5.505-7.768-.45-.311-.9-.641-1-.733-.626-.579-3.437-1.658-5.237-2.01-1.334-.261-5.543-.313-6.13-.076m39.436.013c-.321.071-.867.173-1.213.226-.601.093-1.533.384-3.37 1.053-.821.299-3.088 1.5-3.25 1.722-.046.063-.331.264-.633.446-.629.381-3.201 2.822-3.201 3.039a.235.235 0 01-.137.199c-.181.073-1.529 2.116-1.529 2.317 0 .085-.075.155-.167.155a.165.165 0 00-.167.162c0 .089-.183.558-.406 1.042-.769 1.663-.941 2.208-1.35 4.263-.591 2.966-.507 7.556.175 9.707.053.165.128.437.167.604.184.786.878 2.552 1.291 3.285.251.447.457.849.457.894 0 .045.262.439.583.876.321.437.583.835.583.884 0 .675 4.032 4.1 6.084 5.168 4.376 2.277 11.267 2.888 15.583 1.382.412-.144.847-.263.966-.265.286-.003 3.042-1.385 4.201-2.107.936-.583 2.798-2.156 3.409-2.882.188-.222.473-.542.635-.711 1.249-1.304 3.196-5.387 3.563-7.469.041-.229.153-.679.25-1 .097-.32.198-2.008.224-3.75.049-3.194-.043-4.014-.665-5.939-.137-.425-.25-.894-.25-1.044 0-.149-.069-.401-.153-.561a90.671 90.671 0 01-.901-1.872c-.411-.871-.98-1.884-1.264-2.25-.285-.367-.662-.854-.838-1.084-.491-.637-1.554-1.694-2.264-2.25a13.381 13.381 0 01-.847-.708c-.115-.115-.246-.208-.292-.208-.046 0-.535-.3-1.087-.667-.552-.367-1.068-.667-1.146-.667-.077 0-.227-.086-.332-.191-.185-.185-1.174-.582-2.709-1.087-2.393-.787-7.88-1.178-10-.712m68.167.017c-2.384.509-4.089 1.166-5.701 2.198-.522.335-1.022.609-1.111.609-.088 0-.186.056-.216.126-.031.069-.393.387-.806.705-.412.318-.956.794-1.208 1.058l-.458.479V94h-9.834v36.667h9.834v-12.189c0-13.722-.098-12.674 1.277-13.755.331-.26.713-.58.847-.712 2.554-2.485 8.808-2.833 10.964-.61 1.882 1.94 1.828 1.49 1.828 15.391v11.874l4.884.001h4.883l-.059-14.459c-.059-14.166-.067-14.478-.409-15.458-.573-1.641-.935-2.487-1.165-2.72-.119-.121-.217-.31-.217-.418 0-.568-3.387-3.326-4.333-3.529a5.64 5.64 0 01-.75-.264c-.275-.116-.65-.23-.834-.253a15.18 15.18 0 01-1.048-.205c-.922-.209-5.392-.21-6.368-.001m59 .07c-2.243.406-6.021 1.971-6.306 2.612-.03.068-.136.125-.235.125-.392 0-2.551 2.547-3.177 3.75-1.114 2.138-1.437 5.887-.703 8.166 1.41 4.381 4.988 6.549 13.754 8.336.229.046.604.13.833.186.23.056.642.129.917.162 6.087.725 7.737 5.05 2.561 6.713-2.616.84-6.887.183-10.779-1.658-.761-.361-1.418-.655-1.459-.655-.142 0-2.324-1.55-2.791-1.982l-.469-.433-.32.415c-.177.229-.365.548-.418.708-.054.16-.167.292-.253.292-.085 0-.157.093-.16.208-.002.115-.338.733-.746 1.375a40.542 40.542 0 00-1.101 1.833c-.198.367-.406.704-.462.75-.533.433-.875 1.539-.565 1.827.473.441 3.365 2.38 4.045 2.713 1.499.733 4.163 1.707 5.167 1.889.229.042.766.156 1.193.253.882.202.998.218 3.693.504 3.297.351 8.107-.274 10.531-1.368.366-.165.854-.383 1.083-.483 2.973-1.302 5.62-4.61 6.146-7.682.47-2.746-.168-6.698-1.256-7.787-.123-.122-.223-.286-.223-.362 0-.113-1.294-1.419-2.231-2.254-.547-.487-3.121-1.749-4.853-2.379-.721-.262-2.43-.729-2.916-.796-.387-.053-3.392-.706-4.917-1.068-.367-.087-1.192-.281-1.833-.43-3.276-.762-4.133-2.625-2.104-4.577 2.744-2.641 11.311-1.336 14.704 2.24.556.586.764.535 1.193-.295 1.004-1.941 1.2-2.278 1.323-2.278.074 0 .134-.082.134-.182 0-.1.412-.904.916-1.786 1.108-1.94 1.104-1.845.125-2.589a41.994 41.994 0 01-1-.779c-.114-.097-.208-.125-.208-.061 0 .063-.131.002-.292-.137-.428-.37-4.002-2.045-4.875-2.283a106 106 0 01-1.25-.351c-2.289-.663-7.804-.876-10.416-.402m-97.22.679c-.063.062-.114 8.313-.114 18.335v18.223h9.835l-.042-18.292-.043-18.292-4.761-.044c-2.619-.024-4.813.007-4.875.07m-67.119 8.056c5.245 1.413 8.025 7.819 6.146 14.168-.241.815-1.169 2.667-1.336 2.667-.076 0-.138.094-.139.208-.001.18-1.233 1.428-2.067 2.094-1.832 1.463-6.305 1.976-8.265.947-.229-.12-.83-.415-1.334-.655-1.142-.543-1.882-1.076-2.791-2.01l-.709-.728v-13.122l.663-.689c2.425-2.525 6.605-3.749 9.832-2.88m43.791.227c2.786.968 4.434 2.814 5.599 6.275.944 2.801.153 8.959-1.305 10.17-.136.112-.247.288-.247.392-.002.837-3.086 2.923-4.968 3.36-3.843.893-6.823-.239-9.677-3.677-2.301-2.771-2.248-10.268.094-13.244.958-1.217 1.5-1.791 1.945-2.061.288-.173.561-.371.607-.438.214-.315 2.205-1.048 3.333-1.227 1.133-.18 3.459.047 4.619.45" fill="#abdc44"/>
    
    <path d="M51.083 60.85c-21.695 1.361-39.404 17.869-42 39.15-.82 6.729-.327 11.954 1.787 18.917.195.641.371 1.247.39 1.345.276 1.399 2.654 6.954 3.266 7.629.263.291.269.267.1-.416-.306-1.232-.237-9.248.096-11.308.156-.963.365-2.313.465-3 .099-.688.278-1.663.397-2.167.12-.504.302-1.329.406-1.833.509-2.464 2.352-8.552 3.318-10.958.175-.436.528-1.317.783-1.959 3.102-7.782 7.011-13.072 11.209-15.173 1.247-.624 1.462-.701 3.533-1.278 2.623-.729 10.181-.24 13.03.844.213.081.687.239 1.054.351 1.962.6 4.636 1.838 6.981 3.234.722.43 1.33.761 1.351.736.161-.205 4.4-6.9 5.2-8.214 2.105-3.458 3.981-6.765 5.495-9.689l1.564-3.021-.712-.287C65.037 62.24 61.21 61.317 57 60.908c-2.634-.256-2.742-.257-5.917-.058" fill="#71cc3c"/>
    
    <path d="M8.705 103.333c0 .321.035.452.077.292.041-.16.041-.423 0-.583-.042-.161-.077-.029-.077.291m.004 4.75c.002.367.036.497.076.29a1.835 1.835 0 00-.004-.667c-.042-.159-.074.011-.072.377" fill="#84d43c"/>
    
    <path d="M52.208 60.782c.161.041.423.041.584 0 .16-.042.029-.077-.292-.077s-.452.035-.292.077" fill="#92d444"/>
    
    <path d="M347.542 17.615c.16.042.423.042.583 0 .16-.042.029-.076-.292-.076s-.452.034-.291.076m31.085 23.503c.207.04.507.038.667-.003.159-.042-.011-.075-.377-.073-.367.002-.497.036-.29.076M223.542 84.417c.002.366.036.497.076.289a1.83 1.83 0 00-.003-.666c-.042-.16-.075.01-.073.377m63.865 4.666c0 2.75.023 3.899.051 2.552.028-1.346.028-3.596 0-5-.028-1.403-.051-.302-.051 2.448m.004 21.917c0 4.629.021 6.523.047 4.208.026-2.314.026-6.102 0-8.416-.026-2.315-.047-.421-.047 4.208M8.542 105.75c.002.367.036.497.076.29.04-.208.038-.508-.003-.667-.042-.159-.075.01-.073.377m248.037 13.583c0 6.188.021 8.719.046 5.625a843.76 843.76 0 000-11.25c-.025-3.093-.046-.562-.046 5.625m-89.527-7.083c.001.55.032.755.069.455a4.447 4.447 0 00-.002-1c-.038-.25-.068-.005-.067.545" fill="#9cd744"/>
  </g>
</svg>