<svg width="1688" height="668" viewBox="0 0 1688 668" fill="none" xmlns="http://www.w3.org/2000/svg">
<rect x="162" y="422.066" width="150" height="50" transform="rotate(-45 162 422.066)" fill="black"/>
<path d="M12 414.35L146.35 280L181.706 315.355L47.3553 449.706L12 414.35Z" fill="black"/>
<rect y="267.066" width="150" height="50" transform="rotate(-45 0 267.066)" fill="black"/>
<circle cx="240" cy="218" r="125" stroke="black" stroke-width="50"/>
<path d="M606.7 330L535.9 237V330H484.6V119.4H535.9V211.8L606.1 119.4H666.4L584.8 222.6L669.4 330H606.7ZM793.38 332.1C773.58 332.1 755.38 327.5 738.78 318.3C722.38 309.1 709.28 296.3 699.48 279.9C689.88 263.3 685.08 244.7 685.08 224.1C685.08 203.5 689.88 185 699.48 168.6C709.28 152.2 722.38 139.4 738.78 130.2C755.38 121 773.58 116.4 793.38 116.4C813.18 116.4 831.28 121 847.68 130.2C864.28 139.4 877.28 152.2 886.68 168.6C896.28 185 901.08 203.5 901.08 224.1C901.08 244.7 896.28 263.3 886.68 279.9C877.08 296.3 864.08 309.1 847.68 318.3C831.28 327.5 813.18 332.1 793.38 332.1ZM793.38 285.3C810.18 285.3 823.58 279.7 833.58 268.5C843.78 257.3 848.88 242.5 848.88 224.1C848.88 205.5 843.78 190.7 833.58 179.7C823.58 168.5 810.18 162.9 793.38 162.9C776.38 162.9 762.78 168.4 752.58 179.4C742.58 190.4 737.58 205.3 737.58 224.1C737.58 242.7 742.58 257.6 752.58 268.8C762.78 279.8 776.38 285.3 793.38 285.3ZM1005.82 332.1C990.42 332.1 976.62 329.6 964.42 324.6C952.22 319.6 942.42 312.2 935.02 302.4C927.82 292.6 924.02 280.8 923.62 267H978.22C979.02 274.8 981.72 280.8 986.32 285C990.92 289 996.92 291 1004.32 291C1011.92 291 1017.92 289.3 1022.32 285.9C1026.72 282.3 1028.92 277.4 1028.92 271.2C1028.92 266 1027.12 261.7 1023.52 258.3C1020.12 254.9 1015.82 252.1 1010.62 249.9C1005.62 247.7 998.42 245.2 989.02 242.4C975.42 238.2 964.32 234 955.72 229.8C947.12 225.6 939.72 219.4 933.52 211.2C927.32 203 924.22 192.3 924.22 179.1C924.22 159.5 931.32 144.2 945.52 133.2C959.72 122 978.22 116.4 1001.02 116.4C1024.22 116.4 1042.92 122 1057.12 133.2C1071.32 144.2 1078.92 159.6 1079.92 179.4H1024.42C1024.02 172.6 1021.52 167.3 1016.92 163.5C1012.32 159.5 1006.42 157.5 999.22 157.5C993.02 157.5 988.02 159.2 984.22 162.6C980.42 165.8 978.52 170.5 978.52 176.7C978.52 183.5 981.72 188.8 988.12 192.6C994.52 196.4 1004.52 200.5 1018.12 204.9C1031.72 209.5 1042.72 213.9 1051.12 218.1C1059.72 222.3 1067.12 228.4 1073.32 236.4C1079.52 244.4 1082.62 254.7 1082.62 267.3C1082.62 279.3 1079.52 290.2 1073.32 300C1067.32 309.8 1058.52 317.6 1046.92 323.4C1035.32 329.2 1021.62 332.1 1005.82 332.1ZM1352.69 119.4V330H1301.39V203.7L1254.29 330H1212.89L1165.49 203.4V330H1114.19V119.4H1174.79L1233.89 265.2L1292.39 119.4H1352.69ZM1440.88 119.4V330H1389.58V119.4H1440.88ZM1469.36 224.4C1469.36 203.6 1473.86 185.1 1482.86 168.9C1491.86 152.5 1504.36 139.8 1520.36 130.8C1536.56 121.6 1554.86 117 1575.26 117C1600.26 117 1621.66 123.6 1639.46 136.8C1657.26 150 1669.16 168 1675.16 190.8H1618.76C1614.56 182 1608.56 175.3 1600.76 170.7C1593.16 166.1 1584.46 163.8 1574.66 163.8C1558.86 163.8 1546.06 169.3 1536.26 180.3C1526.46 191.3 1521.56 206 1521.56 224.4C1521.56 242.8 1526.46 257.5 1536.26 268.5C1546.06 279.5 1558.86 285 1574.66 285C1584.46 285 1593.16 282.7 1600.76 278.1C1608.56 273.5 1614.56 266.8 1618.76 258H1675.16C1669.16 280.8 1657.26 298.8 1639.46 312C1621.66 325 1600.26 331.5 1575.26 331.5C1554.86 331.5 1536.56 327 1520.36 318C1504.36 308.8 1491.86 296.1 1482.86 279.9C1473.86 263.7 1469.36 245.2 1469.36 224.4Z" fill="black"/>
<path d="M536.612 567.778C525.267 567.778 515.361 565.746 506.894 561.682C498.597 557.618 492.162 552.284 487.59 545.68C483.018 538.907 480.309 531.625 479.462 523.836H484.542C485.389 529.763 487.505 535.689 490.892 541.616C494.448 547.543 499.951 552.623 507.402 556.856C515.022 561.089 524.759 563.206 536.612 563.206C546.095 563.206 554.477 561.428 561.758 557.872C569.039 554.147 574.627 549.236 578.522 543.14C582.417 537.044 584.364 530.271 584.364 522.82C584.364 513.168 582.163 505.548 577.76 499.96C573.357 494.203 567.854 489.969 561.25 487.26C554.815 484.551 546.095 481.757 535.088 478.878C523.573 475.83 514.345 472.782 507.402 469.734C500.459 466.686 494.533 462.029 489.622 455.764C484.881 449.329 482.51 440.693 482.51 429.856C482.51 422.067 484.627 414.785 488.86 408.012C493.263 401.069 499.443 395.566 507.402 391.502C515.53 387.438 524.759 385.406 535.088 385.406C545.587 385.406 554.646 387.269 562.266 390.994C569.886 394.719 575.813 399.461 580.046 405.218C584.449 410.806 587.327 416.733 588.682 422.998H583.602C582.417 418.087 579.961 413.092 576.236 408.012C572.511 402.932 567.177 398.699 560.234 395.312C553.291 391.756 544.909 389.978 535.088 389.978C526.452 389.978 518.493 391.671 511.212 395.058C504.1 398.275 498.343 402.932 493.94 409.028C489.707 414.955 487.59 421.897 487.59 429.856C487.59 439.677 489.791 447.551 494.194 453.478C498.766 459.235 504.354 463.553 510.958 466.432C517.562 469.141 526.367 471.935 537.374 474.814C548.889 477.862 558.033 480.91 564.806 483.958C571.749 486.837 577.591 491.409 582.332 497.674C587.073 503.77 589.444 512.152 589.444 522.82C589.444 530.271 587.412 537.467 583.348 544.41C579.453 551.353 573.527 557.025 565.568 561.428C557.609 565.661 547.957 567.778 536.612 567.778ZM702.762 568.032C686.336 568.032 671.604 564.222 658.566 556.602C645.696 548.813 635.621 537.975 628.34 524.09C621.058 510.205 617.418 494.457 617.418 476.846C617.418 459.235 621.058 443.487 628.34 429.602C635.621 415.717 645.696 404.964 658.566 397.344C671.604 389.555 686.336 385.66 702.762 385.66C719.187 385.66 733.834 389.555 746.704 397.344C759.742 404.964 769.902 415.717 777.184 429.602C784.465 443.487 788.106 459.235 788.106 476.846C788.106 494.457 784.465 510.205 777.184 524.09C769.902 537.975 759.742 548.813 746.704 556.602C733.834 564.222 719.187 568.032 702.762 568.032ZM702.762 563.46C717.663 563.46 731.21 559.989 743.402 553.046C755.594 545.934 765.161 535.859 772.104 522.82C779.216 509.612 782.772 494.287 782.772 476.846C782.772 459.405 779.216 444.165 772.104 431.126C765.161 417.918 755.594 407.843 743.402 400.9C731.21 393.788 717.663 390.232 702.762 390.232C687.86 390.232 674.314 393.788 662.122 400.9C649.93 407.843 640.278 417.918 633.166 431.126C626.223 444.165 622.752 459.405 622.752 476.846C622.752 494.287 626.223 509.612 633.166 522.82C640.278 535.859 649.93 545.934 662.122 553.046C674.314 559.989 687.86 563.46 702.762 563.46ZM912.31 387.184V391.756H830.014V474.306H904.69V478.878H830.014V566H824.934V387.184H912.31ZM1036.71 387.184V391.756H984.636V566H979.556V391.756H927.486V387.184H1036.71ZM1262.44 387.184L1214.44 566H1209.36L1156.27 395.566L1103.18 566H1098.61L1050.61 387.184H1056.19L1101.15 556.094L1153.48 387.184H1159.06L1211.9 556.856L1256.85 387.184H1262.44ZM1392.06 516.724H1303.67L1284.87 566H1279.03L1345.32 392.518H1350.4L1416.44 566H1410.6L1392.06 516.724ZM1390.28 512.152L1347.86 400.646L1305.44 512.152H1390.28ZM1543.34 566L1495.59 488.022H1490.76H1450.63V566H1445.55V387.184H1490.25C1509.89 387.184 1524.46 391.671 1533.94 400.646C1543.59 409.621 1548.42 421.897 1548.42 437.476C1548.42 451.869 1544.35 463.384 1536.23 472.02C1528.1 480.656 1516.5 485.821 1501.43 487.514L1549.69 566H1543.34ZM1490.76 483.196C1508.2 483.196 1521.24 479.047 1529.88 470.75C1538.68 462.453 1543.08 451.361 1543.08 437.476C1543.08 407.335 1525.47 392.264 1490.25 392.264H1450.63V483.196H1490.76ZM1586.56 391.756V474.306H1661.23V478.878H1586.56V561.428H1668.85V566H1581.48V387.184H1668.85V391.756H1586.56Z" fill="black"/>
<path d="M606.7 330L535.9 237V330H484.6V119.4H535.9V211.8L606.1 119.4H666.4L584.8 222.6L669.4 330H606.7ZM793.38 332.1C773.58 332.1 755.38 327.5 738.78 318.3C722.38 309.1 709.28 296.3 699.48 279.9C689.88 263.3 685.08 244.7 685.08 224.1C685.08 203.5 689.88 185 699.48 168.6C709.28 152.2 722.38 139.4 738.78 130.2C755.38 121 773.58 116.4 793.38 116.4C813.18 116.4 831.28 121 847.68 130.2C864.28 139.4 877.28 152.2 886.68 168.6C896.28 185 901.08 203.5 901.08 224.1C901.08 244.7 896.28 263.3 886.68 279.9C877.08 296.3 864.08 309.1 847.68 318.3C831.28 327.5 813.18 332.1 793.38 332.1ZM793.38 285.3C810.18 285.3 823.58 279.7 833.58 268.5C843.78 257.3 848.88 242.5 848.88 224.1C848.88 205.5 843.78 190.7 833.58 179.7C823.58 168.5 810.18 162.9 793.38 162.9C776.38 162.9 762.78 168.4 752.58 179.4C742.58 190.4 737.58 205.3 737.58 224.1C737.58 242.7 742.58 257.6 752.58 268.8C762.78 279.8 776.38 285.3 793.38 285.3ZM1005.82 332.1C990.42 332.1 976.62 329.6 964.42 324.6C952.22 319.6 942.42 312.2 935.02 302.4C927.82 292.6 924.02 280.8 923.62 267H978.22C979.02 274.8 981.72 280.8 986.32 285C990.92 289 996.92 291 1004.32 291C1011.92 291 1017.92 289.3 1022.32 285.9C1026.72 282.3 1028.92 277.4 1028.92 271.2C1028.92 266 1027.12 261.7 1023.52 258.3C1020.12 254.9 1015.82 252.1 1010.62 249.9C1005.62 247.7 998.42 245.2 989.02 242.4C975.42 238.2 964.32 234 955.72 229.8C947.12 225.6 939.72 219.4 933.52 211.2C927.32 203 924.22 192.3 924.22 179.1C924.22 159.5 931.32 144.2 945.52 133.2C959.72 122 978.22 116.4 1001.02 116.4C1024.22 116.4 1042.92 122 1057.12 133.2C1071.32 144.2 1078.92 159.6 1079.92 179.4H1024.42C1024.02 172.6 1021.52 167.3 1016.92 163.5C1012.32 159.5 1006.42 157.5 999.22 157.5C993.02 157.5 988.02 159.2 984.22 162.6C980.42 165.8 978.52 170.5 978.52 176.7C978.52 183.5 981.72 188.8 988.12 192.6C994.52 196.4 1004.52 200.5 1018.12 204.9C1031.72 209.5 1042.72 213.9 1051.12 218.1C1059.72 222.3 1067.12 228.4 1073.32 236.4C1079.52 244.4 1082.62 254.7 1082.62 267.3C1082.62 279.3 1079.52 290.2 1073.32 300C1067.32 309.8 1058.52 317.6 1046.92 323.4C1035.32 329.2 1021.62 332.1 1005.82 332.1ZM1352.69 119.4V330H1301.39V203.7L1254.29 330H1212.89L1165.49 203.4V330H1114.19V119.4H1174.79L1233.89 265.2L1292.39 119.4H1352.69ZM1440.88 119.4V330H1389.58V119.4H1440.88ZM1469.36 224.4C1469.36 203.6 1473.86 185.1 1482.86 168.9C1491.86 152.5 1504.36 139.8 1520.36 130.8C1536.56 121.6 1554.86 117 1575.26 117C1600.26 117 1621.66 123.6 1639.46 136.8C1657.26 150 1669.16 168 1675.16 190.8H1618.76C1614.56 182 1608.56 175.3 1600.76 170.7C1593.16 166.1 1584.46 163.8 1574.66 163.8C1558.86 163.8 1546.06 169.3 1536.26 180.3C1526.46 191.3 1521.56 206 1521.56 224.4C1521.56 242.8 1526.46 257.5 1536.26 268.5C1546.06 279.5 1558.86 285 1574.66 285C1584.46 285 1593.16 282.7 1600.76 278.1C1608.56 273.5 1614.56 266.8 1618.76 258H1675.16C1669.16 280.8 1657.26 298.8 1639.46 312C1621.66 325 1600.26 331.5 1575.26 331.5C1554.86 331.5 1536.56 327 1520.36 318C1504.36 308.8 1491.86 296.1 1482.86 279.9C1473.86 263.7 1469.36 245.2 1469.36 224.4Z" fill="black"/>
<path d="M536.612 567.778C525.267 567.778 515.361 565.746 506.894 561.682C498.597 557.618 492.162 552.284 487.59 545.68C483.018 538.907 480.309 531.625 479.462 523.836H484.542C485.389 529.763 487.505 535.689 490.892 541.616C494.448 547.543 499.951 552.623 507.402 556.856C515.022 561.089 524.759 563.206 536.612 563.206C546.095 563.206 554.477 561.428 561.758 557.872C569.039 554.147 574.627 549.236 578.522 543.14C582.417 537.044 584.364 530.271 584.364 522.82C584.364 513.168 582.163 505.548 577.76 499.96C573.357 494.203 567.854 489.969 561.25 487.26C554.815 484.551 546.095 481.757 535.088 478.878C523.573 475.83 514.345 472.782 507.402 469.734C500.459 466.686 494.533 462.029 489.622 455.764C484.881 449.329 482.51 440.693 482.51 429.856C482.51 422.067 484.627 414.785 488.86 408.012C493.263 401.069 499.443 395.566 507.402 391.502C515.53 387.438 524.759 385.406 535.088 385.406C545.587 385.406 554.646 387.269 562.266 390.994C569.886 394.719 575.813 399.461 580.046 405.218C584.449 410.806 587.327 416.733 588.682 422.998H583.602C582.417 418.087 579.961 413.092 576.236 408.012C572.511 402.932 567.177 398.699 560.234 395.312C553.291 391.756 544.909 389.978 535.088 389.978C526.452 389.978 518.493 391.671 511.212 395.058C504.1 398.275 498.343 402.932 493.94 409.028C489.707 414.955 487.59 421.897 487.59 429.856C487.59 439.677 489.791 447.551 494.194 453.478C498.766 459.235 504.354 463.553 510.958 466.432C517.562 469.141 526.367 471.935 537.374 474.814C548.889 477.862 558.033 480.91 564.806 483.958C571.749 486.837 577.591 491.409 582.332 497.674C587.073 503.77 589.444 512.152 589.444 522.82C589.444 530.271 587.412 537.467 583.348 544.41C579.453 551.353 573.527 557.025 565.568 561.428C557.609 565.661 547.957 567.778 536.612 567.778ZM702.762 568.032C686.336 568.032 671.604 564.222 658.566 556.602C645.696 548.813 635.621 537.975 628.34 524.09C621.058 510.205 617.418 494.457 617.418 476.846C617.418 459.235 621.058 443.487 628.34 429.602C635.621 415.717 645.696 404.964 658.566 397.344C671.604 389.555 686.336 385.66 702.762 385.66C719.187 385.66 733.834 389.555 746.704 397.344C759.742 404.964 769.902 415.717 777.184 429.602C784.465 443.487 788.106 459.235 788.106 476.846C788.106 494.457 784.465 510.205 777.184 524.09C769.902 537.975 759.742 548.813 746.704 556.602C733.834 564.222 719.187 568.032 702.762 568.032ZM702.762 563.46C717.663 563.46 731.21 559.989 743.402 553.046C755.594 545.934 765.161 535.859 772.104 522.82C779.216 509.612 782.772 494.287 782.772 476.846C782.772 459.405 779.216 444.165 772.104 431.126C765.161 417.918 755.594 407.843 743.402 400.9C731.21 393.788 717.663 390.232 702.762 390.232C687.86 390.232 674.314 393.788 662.122 400.9C649.93 407.843 640.278 417.918 633.166 431.126C626.223 444.165 622.752 459.405 622.752 476.846C622.752 494.287 626.223 509.612 633.166 522.82C640.278 535.859 649.93 545.934 662.122 553.046C674.314 559.989 687.86 563.46 702.762 563.46ZM912.31 387.184V391.756H830.014V474.306H904.69V478.878H830.014V566H824.934V387.184H912.31ZM1036.71 387.184V391.756H984.636V566H979.556V391.756H927.486V387.184H1036.71ZM1262.44 387.184L1214.44 566H1209.36L1156.27 395.566L1103.18 566H1098.61L1050.61 387.184H1056.19L1101.15 556.094L1153.48 387.184H1159.06L1211.9 556.856L1256.85 387.184H1262.44ZM1392.06 516.724H1303.67L1284.87 566H1279.03L1345.32 392.518H1350.4L1416.44 566H1410.6L1392.06 516.724ZM1390.28 512.152L1347.86 400.646L1305.44 512.152H1390.28ZM1543.34 566L1495.59 488.022H1490.76H1450.63V566H1445.55V387.184H1490.25C1509.89 387.184 1524.46 391.671 1533.94 400.646C1543.59 409.621 1548.42 421.897 1548.42 437.476C1548.42 451.869 1544.35 463.384 1536.23 472.02C1528.1 480.656 1516.5 485.821 1501.43 487.514L1549.69 566H1543.34ZM1490.76 483.196C1508.2 483.196 1521.24 479.047 1529.88 470.75C1538.68 462.453 1543.08 451.361 1543.08 437.476C1543.08 407.335 1525.47 392.264 1490.25 392.264H1450.63V483.196H1490.76ZM1586.56 391.756V474.306H1661.23V478.878H1586.56V561.428H1668.85V566H1581.48V387.184H1668.85V391.756H1586.56Z" fill="black"/>
</svg>
